<?xml version="1.0" encoding="UTF-8"?>
<svg xmlns="http://www.w3.org/2000/svg" xmlns:xlink="http://www.w3.org/1999/xlink" viewBox="0 0 150.39 118.77">
  <defs>
    <style>
      .cls-1 {
        fill: url(#_Безымянный_градиент_212-4);
      }

      .cls-2 {
        fill: #ae4291;
      }

      .cls-3 {
        fill: #fff;
      }

      .cls-4 {
        fill: none;
      }

      .cls-5 {
        fill: #fdcf76;
        opacity: .48;
      }

      .cls-5, .cls-6 {
        mix-blend-mode: overlay;
      }

      .cls-6, .cls-7 {
        fill: #ffd780;
      }

      .cls-8 {
        fill: url(#_Безымянный_градиент_212-2);
      }

      .cls-9 {
        isolation: isolate;
      }

      .cls-10 {
        fill: url(#_Безымянный_градиент_212);
      }

      .cls-11 {
        fill: url(#_Безымянный_градиент_212-3);
      }

      .cls-12, .cls-13 {
        fill: #ab4091;
      }

      .cls-13 {
        mix-blend-mode: multiply;
        opacity: .14;
      }

      .cls-14 {
        clip-path: url(#clippath);
      }

      .cls-15 {
        fill: #ba5199;
      }

      .cls-16 {
        fill: url(#_Безымянный_градиент_518);
      }
    </style>
    <clipPath id="clippath">
      <circle class="cls-4" cx="80.32" cy="51.57" r="45.41" transform="translate(-12.94 71.9) rotate(-45)"/>
    </clipPath>
    <radialGradient id="_Безымянный_градиент_518" data-name="Безымянный градиент 518" cx="128.2" cy="6.99" fx="128.2" fy="6.99" r="150.05" gradientTransform="translate(59.99 -41.69) rotate(45)" gradientUnits="userSpaceOnUse">
      <stop offset=".19" stop-color="#ea4f88"/>
      <stop offset=".78" stop-color="#ad2685"/>
    </radialGradient>
    <radialGradient id="_Безымянный_градиент_212" data-name="Безымянный градиент 212" cx="-77.19" cy="-286.23" fx="-77.19" fy="-286.23" r="12.83" gradientTransform="translate(119.35 354.26) rotate(-4.68)" gradientUnits="userSpaceOnUse">
      <stop offset=".24" stop-color="#ffe196"/>
      <stop offset=".63" stop-color="#fff8e7"/>
      <stop offset=".78" stop-color="#fff9eb"/>
      <stop offset=".93" stop-color="#fffcf7"/>
      <stop offset="1" stop-color="#fff"/>
    </radialGradient>
    <radialGradient id="_Безымянный_градиент_212-2" data-name="Безымянный градиент 212" cx="-63.79" cy="-1512.67" fx="-63.79" fy="-1512.67" r="12.83" gradientTransform="translate(723.45 1460.08) rotate(-20.33)" xlink:href="#_Безымянный_градиент_212"/>
    <radialGradient id="_Безымянный_градиент_212-3" data-name="Безымянный градиент 212" cx="-106.97" cy="-1499.75" fx="-106.97" fy="-1499.75" r="12.83" gradientTransform="translate(723.45 1460.08) rotate(-20.33)" xlink:href="#_Безымянный_градиент_212"/>
    <radialGradient id="_Безымянный_градиент_212-4" data-name="Безымянный градиент 212" cx="-74.54" cy="-301.76" fx="-74.54" fy="-301.76" r="12.83" gradientTransform="translate(115.62 343.17) rotate(-4.54)" xlink:href="#_Безымянный_градиент_212"/>
  </defs>
  <g class="cls-9">
    <g id="Calque_2" data-name="Calque 2">
      <g id="Calque_1-2" data-name="Calque 1">
        <g>
          <g class="cls-14">
            <circle class="cls-16" cx="80.32" cy="51.57" r="45.41" transform="translate(-12.94 71.9) rotate(-45)"/>
            <path class="cls-6" d="M83.82,24.1c5.93,1.91,12.35,2.97,17.3,6.76,4.62,3.54,7.31,9.01,9.4,14.44.91,2.37,2.2,5.18,4.73,5.46,2.99.34,4.91-3.13,5.47-6.09,1.64-8.78-1.04-17.8-4.77-25.92-2.84-6.19-6.54-12.35-12.38-15.85-7.04-4.23-19.68-3.57-26.3,1.76-8.39,6.76-1.67,16.78,6.55,19.44Z"/>
            <g>
              <path class="cls-12" d="M71.73,42.42c-1.22.07-2.43-.24-3.65-.37-1.39-.15-2.94-.13-3.96-1.08-1.23-1.13-1.63-3.23-1.39-5.28-1.03,2.58-.91,6.04.8,7.62,1.03.95,2.58.92,3.96,1.08,1.22.13,2.43.44,3.65.37,1.22-.07,2.52-.62,3.05-1.73.26-.56.29-1.16.19-1.77-.64.72-1.67,1.1-2.66,1.15Z"/>
              <path class="cls-15" d="M70.05,34.34c-3.49-3.4-6.15-1.59-7.33,1.35-.25,2.05.16,4.14,1.39,5.28,1.03.95,2.58.92,3.96,1.08,1.22.13,2.43.44,3.65.37.99-.06,2.02-.43,2.66-1.15-.11-.67-.38-1.34-.69-1.95-.93-1.84-2.17-3.53-3.65-4.97Z"/>
            </g>
            <g>
              <path class="cls-2" d="M87.8,41.61c-.56-.58-.64-1.48-.56-2.29-.14.33-.25.66-.31.94-.19.94-.27,2.23.45,2.98,1.01,1.05,3.05.63,3.66-.67.15-.33.22-.69.25-1.05.01-.12.01-.24.02-.36-.72,1.11-2.57,1.44-3.52.45Z"/>
              <path class="cls-15" d="M90.85,38.09c-1.28-2.26-2.9-.43-3.6,1.23-.08.81,0,1.71.56,2.29.95.99,2.79.66,3.52-.45,0-.05,0-.09,0-.14.03-1,.01-2.06-.48-2.93Z"/>
            </g>
            <g>
              <path class="cls-2" d="M102.64,71.23c.28-.76,1.05-1.22,1.81-1.51-.36.02-.7.07-.98.14-.93.24-2.12.74-2.48,1.72-.5,1.37.78,3.02,2.21,2.99.36,0,.71-.11,1.05-.24.11-.04.22-.09.33-.14-1.32-.16-2.42-1.68-1.95-2.96Z"/>
              <path class="cls-15" d="M107.14,72.41c1.47-2.15-.89-2.79-2.68-2.69-.76.29-1.54.75-1.81,1.51-.47,1.28.63,2.8,1.95,2.96.04-.02.08-.03.13-.05.92-.41,1.86-.89,2.42-1.72Z"/>
            </g>
            <g>
              <path class="cls-2" d="M78.44,35.98c.32-.37.85-.47,1.34-.47-.21-.07-.41-.11-.58-.13-.57-.06-1.35-.03-1.76.45-.57.67-.2,1.87.61,2.16.21.07.43.09.65.09.07,0,.15,0,.22,0-.71-.37-1.01-1.46-.47-2.08Z"/>
              <path class="cls-15" d="M80.73,37.6c1.28-.9.09-1.76-.94-2.09-.49,0-1.03.1-1.34.47-.54.62-.24,1.71.47,2.08.03,0,.06,0,.08,0,.6-.04,1.24-.11,1.73-.46Z"/>
            </g>
            <g>
              <path class="cls-12" d="M109.37,53.35c-.16-.97-.5-1.96-.97-2.86.49,3.16-.9,6.08-5.7,4.96-2.06-.48-4.03-1.3-5.82-2.42-.46-.29-.91-.64-1.3-1.03-.1.32-.14.66-.1,1,.06.63.36,1.17.76,1.65.45.53,1.04.97,1.63,1.34,1.79,1.12,3.76,1.94,5.82,2.42,4.85,1.13,6.22-1.86,5.69-5.06Z"/>
              <path class="cls-15" d="M102.7,55.45c4.8,1.12,6.19-1.8,5.7-4.96-.88-1.69-2.23-3.06-3.75-3.37-1.4-.28-2.74.55-4.03,1.16-1.14.53-2.36.9-3.39,1.61-.75.51-1.39,1.27-1.65,2.12.4.39.84.74,1.3,1.03,1.79,1.12,3.76,1.94,5.82,2.42Z"/>
            </g>
            <g>
              <path class="cls-12" d="M61.46,61.16c.41-.45.77-.99,1.03-1.56-1.35,1.43-3.3,1.85-4.57-.91-.54-1.18-.89-2.45-1.02-3.75-.03-.34-.03-.68.01-1.02-.19.07-.37.18-.53.33-.28.27-.44.62-.51.99-.09.42-.08.87-.04,1.3.13,1.29.47,2.56,1.02,3.75,1.28,2.79,3.25,2.33,4.61.86Z"/>
              <path class="cls-15" d="M57.92,58.7c1.27,2.76,3.21,2.34,4.57.91.49-1.07.65-2.24.23-3.1-.39-.79-1.3-1.13-2.08-1.53-.69-.35-1.33-.81-2.06-1.05-.53-.17-1.14-.2-1.65,0-.04.34-.04.69-.01,1.02.13,1.29.47,2.56,1.02,3.75Z"/>
            </g>
            <path class="cls-13" d="M60.16,36.35c8.3,5.72,19.23,5.42,28.79,8.62,15.46,5.18,26.92,20.58,27.44,36.88.18,5.62-.86,11.33-3.41,16.35-4.9,9.64-14.92,15.82-25.33,18.73-5.27,1.48-10.81,2.24-16.25,1.63-9.09-1.02-17.64-6-23.09-13.34-5.45-7.34-7.76-16.92-6.34-25.95.85-5.4,2.96-10.73,2.31-16.16-.8-6.69-5.6-12.15-8.02-18.44-3.98-10.36-.27-22.84,7.93-30.08,7.48-6.6,5.42.34,6.39,6.28,1.01,6.14,4.44,11.94,9.59,15.48Z"/>
            <path class="cls-5" d="M103.01,23.97c2.86-1.6-1.77-5.65-4.03-3.84-2.68,2.14,1.88,5.05,4.03,3.84Z"/>
            <path class="cls-5" d="M98.74,13.06c8.7-4.86-5.37-17.17-12.25-11.68-8.15,6.51,5.7,15.34,12.25,11.68Z"/>
            <path class="cls-5" d="M115.92,39.98c3.29,1.28,3.48-5.35.43-5.99-3.62-.76-2.91,5.02-.43,5.99Z"/>
            <path class="cls-5" d="M110.2,26.14c2.15.84,2.27-3.49.28-3.91-2.37-.5-1.9,3.28-.28,3.91Z"/>
            <path class="cls-5" d="M85.2,16.6c.9-2.13-3.42-2.38-3.9-.39-.56,2.35,3.22,1.99,3.9.39Z"/>
            <g>
              <path class="cls-2" d="M66.4,83.88c-.55-.9-.39-2.08-.06-3.1-.28.39-.51.78-.66,1.12-.51,1.15-.98,2.78-.26,3.95.99,1.63,3.73,1.67,4.88.18.29-.38.47-.82.62-1.28.05-.15.09-.31.13-.46-1.24,1.22-3.7,1.11-4.63-.42Z"/>
              <path class="cls-15" d="M71.3,80.23c-1-3.27-3.59-1.37-4.96.55-.33,1.02-.49,2.19.06,3.1.93,1.53,3.39,1.64,4.63.42.02-.06.03-.12.05-.17.33-1.28.6-2.63.22-3.89Z"/>
            </g>
            <g>
              <path class="cls-2" d="M111.18,64.3c.04-.72.58-1.33,1.16-1.78-.31.11-.59.24-.81.38-.73.45-1.62,1.2-1.67,2.14-.07,1.31,1.47,2.39,2.69,1.98.31-.1.59-.28.84-.49.09-.07.17-.14.25-.21-1.18.21-2.53-.8-2.46-2.02Z"/>
              <path class="cls-15" d="M115.37,64.12c.69-2.24-1.51-2.16-3.02-1.6-.58.45-1.12,1.06-1.16,1.78-.06,1.23,1.29,2.24,2.46,2.02.03-.03.06-.05.09-.08.68-.6,1.36-1.26,1.62-2.12Z"/>
            </g>
            <g>
              <path class="cls-2" d="M90.02,82c.56-.46,1.37-.48,2.09-.35-.29-.15-.58-.27-.83-.34-.83-.23-1.98-.38-2.7.22-1.01.84-.76,2.7.37,3.32.29.16.6.24.93.29.11.02.22.03.32.04-.95-.72-1.13-2.4-.18-3.18Z"/>
              <path class="cls-15" d="M92.99,84.96c2.11-1.01.57-2.57-.87-3.31-.72-.12-1.54-.11-2.09.35-.95.79-.77,2.46.18,3.18.04,0,.08.01.12.02.9.09,1.85.14,2.66-.24Z"/>
            </g>
            <g>
              <path class="cls-2" d="M88.26,57.78c-.17-.31-.38-.6-.61-.88.29,1.23.09,2.58-.49,3.71-.77,1.51-2.14,2.65-3.68,3.35-1.4.64-2.97.94-4.49.68-1.33-.22-2.6-.89-3.46-1.92.18.56.4,1.1.72,1.59.84,1.29,2.28,2.12,3.79,2.37s3.09-.05,4.49-.68c1.54-.7,2.91-1.84,3.68-3.35.77-1.51.86-3.39.05-4.87Z"/>
              <path class="cls-15" d="M79,64.64c1.51.25,3.09-.05,4.49-.68,1.54-.7,2.91-1.84,3.68-3.35.58-1.13.77-2.48.49-3.71-1.86-2.2-5.6-3.53-8.2-3.51-1.06,0-2.15.06-3.13.47-.98.41-1.84,1.24-2.02,2.28-.1.6.03,1.22.16,1.81.22,1.01.43,2.02.65,3.02.13.58.26,1.18.44,1.75.86,1.03,2.13,1.7,3.46,1.92Z"/>
            </g>
            <g>
              <path class="cls-2" d="M45.6,44.49c.56-.46,1.37-.48,2.09-.35-.29-.15-.58-.27-.83-.34-.83-.23-1.98-.38-2.7.22-1.01.84-.76,2.7.37,3.32.29.16.6.24.93.29.11.02.22.03.32.04-.95-.72-1.13-2.4-.18-3.18Z"/>
              <path class="cls-15" d="M48.57,47.45c2.11-1.01.57-2.57-.87-3.31-.72-.12-1.54-.11-2.09.35-.95.79-.77,2.46.18,3.18.04,0,.08.01.12.02.9.09,1.85.14,2.66-.24Z"/>
            </g>
            <path class="cls-13" d="M47.73,55.74c.31,5.15,1.23,10.44,4.09,14.74,3.76,5.65,10.61,8.86,17.4,8.95,6.78.09,13.42-2.69,18.7-6.95,2.62-2.11,5-4.66,6.26-7.78,1.99-4.93.75-10.99-3.02-14.74-5.29-5.26-14.08-5.66-18.33-12.14-3.46-5.28-1.54-13.8-9.72-14.3-5.18-.32-11.06,4.02-12.84,8.75-1.29,3.42.02,6.57-.45,10.06-.64,4.72-2.38,8.42-2.08,13.4Z"/>
            <path class="cls-13" d="M52.26,42.94c.96,4.12,2.14,8.19,3.51,12.18,1.06,3.07,2.27,6.15,4.33,8.65,3.31,4,8.43,6.04,13.49,7.23,5.17,1.22,10.52,1.72,15.83,1.47,3.31-.15,6.65-.59,9.93-.1,1.63.24,3.29.74,4.48,1.87,2.17,2.06,2.15,5.54,1.35,8.42-.4,1.44-.96,2.87-1.93,4-1.42,1.67-3.55,2.54-5.64,3.19-5.08,1.58-10.47,2.18-15.78,1.78-3.46-.27-6.89-.96-10.21-1.99-2.35-.73-4.66-1.64-6.77-2.91-2.2-1.33-4.15-3.04-5.96-4.87-6.16-6.24-10.72-14-13.35-22.35-1.32-4.2-2.16-8.56-2.48-12.96-.18-2.53-1.23-10.87,1.17-12.48,1.65-1.1,4.28.91,5.3,2.07,1.65,1.87,2.18,4.45,2.73,6.8Z"/>
          </g>
          <g>
            <path class="cls-7" d="M125.68,53.58c-.05.78-.11,1.68-.2,2.46,15.93,5.59,23.27,11.5,22.63,17.21-.56,4.96-8.73,9.09-22.41,11.33-5.75.94-12.21,1.51-19.15,1.72-1.23.04-2.47.06-3.73.08-4.76.05-9.71-.06-14.8-.33-4.91-.27-9.95-.68-15.05-1.26,0,0,0,0,0,0-4.31-.49-8.46-1.06-12.45-1.7-4.03-.65-7.89-1.37-11.58-2.15-.81-.17-1.61-.34-2.4-.52-1.09-.24-2.16-.49-3.21-.75C17.08,73.35,1.47,63.96,2.27,56.81c.69-6.13,11.64-10.75,30.47-12.4.54-.05,2.2-.1,2.75-.14.09-.77.28-1.57.41-2.33-.55.05-2.28.14-2.82.19C13.16,44.05.87,49.27.04,56.56c-1.08,9.55,17.83,19.72,45.98,26.03,1.21.27,2.43.53,3.67.79.79.16,1.6.32,2.4.48,1.8.35,3.62.69,5.48,1.01,4.86.83,9.92,1.55,15.13,2.14,2.07.23,4.13.44,6.17.62,1.74.16,3.47.3,5.19.42,5.14.36,10.15.54,15,.57,1.41,0,2.8,0,4.18-.02,4.27-.06,8.4-.23,12.31-.55,3.7-.3,7.21-.72,10.49-1.26,8.67-1.42,23.35-5.04,24.28-13.29.77-6.82-7.71-13.79-24.66-19.92Z"/>
            <g>
              <g>
                <path class="cls-10" d="M26.54,71.65c.28,3.44-2.28,6.46-5.72,6.74-3.44.28-6.46-2.28-6.74-5.72-.28-3.44,2.28-6.46,5.72-6.74,3.44-.28,6.46,2.28,6.74,5.72Z"/>
                <path class="cls-8" d="M144.36,58.3c1.2,3.24-.45,6.83-3.69,8.03-3.24,1.2-6.83-.45-8.03-3.69-1.2-3.24.45-6.83,3.69-8.03,3.24-1.2,6.83.45,8.03,3.69Z"/>
                <path class="cls-11" d="M108.37,85.42c1.2,3.24-.45,6.83-3.69,8.03-3.24,1.2-6.83-.45-8.03-3.69-1.2-3.24.45-6.83,3.69-8.03,3.24-1.2,6.83.45,8.03,3.69Z"/>
              </g>
              <path class="cls-3" d="M22.05,85.23s-.01.08-.03.09c-.02,0-.04-.03-.05-.08,0-.05.01-.08.03-.09.02,0,.04.03.05.08Z"/>
            </g>
            <path class="cls-7" d="M121.17,71.5c-.38.69-1,2-1.42,2.67,12.46,11.17,20.87,24.53,17.85,29.42-2.62,4.24-11.77,4.49-25.11.68-5.6-1.6-11.69-3.84-18.05-6.62-1.13-.49-2.26-1-3.41-1.52-4.32-1.98-8.76-4.19-13.24-6.62-4.33-2.34-8.71-4.87-13.08-7.56,0,0,0,0,0,0-3.69-2.28-7.2-4.57-10.54-6.85-3.37-2.31-6.55-4.61-9.55-6.89-.66-.5-1.31-1-1.95-1.49-.88-.68-1.74-1.37-2.59-2.04C19.07,47.74,8.96,32.59,12.74,26.47c3.02-4.89,13.54-4.79,29.32.54.02,0,.07.02.07.02l1.3-1.88s-.07-.02-.11-.03c-16.96-5.58-28.88-5.67-32.49.18-5.05,8.17,7.71,25.44,30.47,43.16.98.76,1.97,1.52,2.98,2.28.65.49,1.31.97,1.97,1.46,1.48,1.09,2.98,2.17,4.53,3.26,4.04,2.83,8.3,5.64,12.77,8.4,1.77,1.09,3.55,2.16,5.32,3.19,1.51.88,3.01,1.75,4.52,2.59,4.49,2.52,8.95,4.82,13.32,6.92,1.27.61,2.53,1.2,3.79,1.77,3.89,1.77,7.7,3.38,11.36,4.76,3.47,1.3,6.83,2.42,10.03,3.34,8.45,2.41,23.27,5.41,27.63-1.66,3.61-5.84-3.35-19.18-18.35-33.26Z"/>
            <path class="cls-1" d="M24.93,44.64c.27,3.44-2.3,6.45-5.74,6.72-3.44.27-6.45-2.3-6.72-5.74-.27-3.44,2.29-6.45,5.74-6.72,3.44-.27,6.45,2.29,6.72,5.74Z"/>
          </g>
        </g>
      </g>
    </g>
  </g>
</svg>