<?xml version="1.0" encoding="UTF-8"?>
<svg xmlns="http://www.w3.org/2000/svg" xmlns:xlink="http://www.w3.org/1999/xlink" viewBox="0 0 185.7 121.96">
  <defs>
    <style>
      .cls-1, .cls-2, .cls-3 {
        fill: #f4a184;
      }

      .cls-2 {
        opacity: .59;
      }

      .cls-4, .cls-5 {
        fill: none;
      }

      .cls-6 {
        fill: #eb5a61;
      }

      .cls-7 {
        fill: url(#_Безымянный_градиент_690);
      }

      .cls-8 {
        isolation: isolate;
      }

      .cls-9 {
        fill: #e83773;
      }

      .cls-9, .cls-5, .cls-3, .cls-10, .cls-11 {
        mix-blend-mode: overlay;
      }

      .cls-5 {
        stroke: #e94984;
        stroke-miterlimit: 10;
        stroke-width: 3px;
      }

      .cls-12 {
        fill: #ffd780;
      }

      .cls-11 {
        fill: #e94984;
      }

      .cls-13 {
        clip-path: url(#clippath);
      }

      .cls-14 {
        fill: #c94b95;
        mix-blend-mode: multiply;
      }
    </style>
    <clipPath id="clippath">
      <circle class="cls-4" cx="91.78" cy="58.56" r="58.56" transform="translate(2.66 121.09) rotate(-67.6)"/>
    </clipPath>
    <radialGradient id="_Безымянный_градиент_690" data-name="Безымянный градиент 690" cx="-14.86" cy="-58.03" fx="-14.86" fy="-58.03" r="194.77" gradientTransform="translate(-29.39 92.98) rotate(64.64)" gradientUnits="userSpaceOnUse">
      <stop offset=".31" stop-color="#ea4f88"/>
      <stop offset=".51" stop-color="#ef7162"/>
      <stop offset=".71" stop-color="#f48f42"/>
      <stop offset=".88" stop-color="#f6a22e"/>
      <stop offset="1" stop-color="#f8a927"/>
    </radialGradient>
  </defs>
  <g class="cls-8">
    <g id="Calque_2" data-name="Calque 2">
      <g id="Calque_1-2" data-name="Calque 1">
        <g>
          <g class="cls-13">
            <circle class="cls-7" cx="91.78" cy="58.56" r="58.56" transform="translate(2.66 121.09) rotate(-67.6)"/>
            <g class="cls-10">
              <path class="cls-6" d="M124.56,38.69c-.56-2.47.21-5.27,2.17-6.88.4-.33.82-.57,1.23-.74-1.5-.68-3.18-.68-4.74.6-1.96,1.61-2.73,4.41-2.17,6.88.56,2.47,2.31,4.58,4.48,5.88,1.12.67,2.44,1.16,3.72.9.27-.05.53-.15.78-.26-.34-.15-.67-.31-.98-.5-2.17-1.3-3.92-3.41-4.48-5.88Z"/>
              <path class="cls-1" d="M133.2,39.7c.02-2.02-.79-3.98-1.91-5.66-.84-1.26-2.02-2.38-3.33-2.97-.41.17-.83.41-1.23.74-1.96,1.61-2.73,4.41-2.17,6.88.56,2.47,2.31,4.58,4.48,5.88.31.19.64.35.98.5.16-.07.33-.15.48-.24,1.73-1.04,2.68-3.11,2.7-5.13Z"/>
            </g>
            <path class="cls-2" d="M121.49,82.89c-3.54,1.82-5.71,6.08-4.88,9.98.83,3.89,4.72,6.95,8.69,6.63,3.82-.31,6.88-3.31,9.04-6.48,1.63-2.39,3-5.13,2.9-8.02-.1-3.07-2.34-6.59-5.68-5.83-1.58.36-3.13,1.46-4.71,1.96-1.8.57-3.67.89-5.36,1.76Z"/>
            <path class="cls-3" d="M85.42,35.62c1.75,6.02,1.16,12.71,3.99,18.3,1.42,2.81,3.62,5.15,5.97,7.24,8.57,7.62,19.83,12.83,25.38,22.87,1.01,1.82,1.81,3.82,1.85,5.91.06,2.94-1.39,5.73-3.29,7.97-6.5,7.69-17.58,9.71-27.63,9.2-4.51-.23-9.05-.87-13.29-2.42-9.37-3.43-16.72-11.16-21.41-19.96-4.7-8.81-8.89-18.46-10.57-28.29-1.26-7.35-.29-15.25,1.95-22.36,2.25-7.15,10.63-16.18,18.85-15.48,8.33.71,16.01,9.46,18.2,17.02Z"/>
            <path class="cls-9" d="M55.01,78.88c16.22,3.65,32.92-1.71,48.95-6.12,16.03-4.41,33.76-7.8,48.78-.66,1.67.79,3.43,3.08,1.91,4.14-31.89-11.51-67,11.8-100.38,5.85-4.15-.74-30.29-9.23-26.41-14.53,2.49-3.4,22.44,10.27,27.15,11.33Z"/>
            <path class="cls-11" d="M75.02,94.64c5.93-.34,11.77-1.63,17.7-1.94,12.59-.65,24.92,3.17,37.24,5.82,6.32,1.36,13.77,2.13,18.47-2.32,3.67-3.48,4.34-8.99,4.68-14.03.09-1.25.15-2.55-.37-3.68-.61-1.31-1.91-2.15-3.19-2.85-10.27-5.64-22.94-6.72-34.02-2.9-2.56.88-5.04,2.02-7.64,2.79-2.81.83-5.73,1.24-8.63,1.64-7.43,1.02-14.85,2.04-22.28,3.06-6.56.9-13.27,1.8-19.77.54-8.4-1.63-15.64-7.15-24.02-8.63-6.67-1.18-5.17,2.78-1.9,6.86,9.57,11.95,29.15,16.47,43.72,15.64Z"/>
            <path class="cls-5" d="M28.17,43.94c7.03,9.59,17.47,17.78,29.35,17.9,12.31.12,22.86-8.17,32.84-15.38,9.42-6.81,19.46-13.09,30.62-16.36,11.16-3.27,23.65-3.28,33.99,2.04"/>
            <path class="cls-9" d="M43.22,65.78c6.12,4.13,13.37,6.97,20.75,6.62,12.89-.6,23.21-10.37,34.82-16.01,9.69-4.72,20.74-6.62,31.45-5.4,6.75.76,13.56,2.73,20.23,1.43,1.06-.21,2.2-.56,2.79-1.46.47-.72.5-1.63.51-2.49.06-4.75.03-9.8-2.51-13.8-3.08-4.84-9.17-6.95-14.9-7.22-11.64-.53-22.68,5.07-32.34,11.59-9.66,6.52-18.73,14.16-29.49,18.64-10.76,4.48-24.02,5.23-33.36-1.75-2.53-1.89-10.07-10.35-10.12-2.77-.04,5.05,8.55,10.17,12.19,12.63Z"/>
            <g>
              <g class="cls-10">
                <path class="cls-6" d="M91,12.76c.7-2.35,2.26-4.5,4.44-5.62,2-1.02,4.52-1.06,6.45.05-.28-.67-.76-1.29-1.49-1.83-1.98-1.45-4.8-1.5-6.98-.38-2.18,1.12-3.74,3.27-4.44,5.62-.36,1.21-.5,2.57.05,3.71.19.4.46.75.78,1.06.34.33.72.61,1.14.83-.42-1.08-.28-2.32.06-3.44Z"/>
                <path class="cls-1" d="M100.12,13.51c1.59-1.78,2.62-4.27,1.76-6.32-1.93-1.11-4.45-1.07-6.45-.05-2.18,1.12-3.74,3.27-4.44,5.62-.33,1.12-.47,2.36-.06,3.44,1.3.69,2.89.82,4.33.47,1.9-.47,3.54-1.7,4.85-3.16Z"/>
              </g>
              <g class="cls-10">
                <path class="cls-6" d="M132.19,62.25c-.19-.39-.21-.84.03-1.24.21-.36.65-.64,1.14-.71-.14-.06-.31-.09-.5-.08-.54.03-1.04.34-1.27.73-.23.39-.22.85-.03,1.24.1.2.25.39.5.48.09.03.18.05.28.05.1,0,.21,0,.31-.02-.22-.1-.36-.28-.45-.46Z"/>
                <path class="cls-1" d="M133.89,61.34c.04-.41-.11-.85-.53-1.03-.49.07-.92.35-1.14.71-.23.39-.22.85-.03,1.24.09.18.23.36.45.46.32-.05.62-.21.82-.42.27-.27.39-.62.43-.96Z"/>
              </g>
              <g>
                <path class="cls-14" d="M72.63,27.55c-2.56,2.2-5.23,4.47-8.49,5.35-3.26.88-7.27-.06-8.88-3.02-.52-.96-.73-1.99-.75-3.05-.66,2.29-.92,4.65.18,6.69,1.61,2.97,5.62,3.91,8.88,3.02,3.26-.88,5.93-3.15,8.49-5.35,2.71-2.34,5.47-4.72,7.42-7.72,1.16-1.79,2.04-3.85,2.02-5.98,0-.17-.01-.32-.02-.48-.36.99-.86,1.94-1.44,2.82-1.95,3-4.7,5.39-7.42,7.72Z"/>
                <path class="cls-9" d="M67.76,12.23c-3.37.7-6.63,2.34-8.81,5-1.64,2-2.58,4.46-3.51,6.87-.34.88-.67,1.8-.94,2.73.02,1.06.23,2.09.75,3.05,1.61,2.97,5.62,3.91,8.88,3.02,3.26-.88,5.93-3.15,8.49-5.35,2.71-2.34,5.47-4.72,7.42-7.72.57-.88,1.08-1.83,1.44-2.82-.43-6.66-8.9-5.79-13.72-4.78Z"/>
              </g>
              <g>
                <path class="cls-9" d="M87.14,35.08c.87.5,1.84.82,2.84.92,1.23.13,2.54-.09,3.54-.81.54-.39.97-.91,1.4-1.42.16-.19.32-.4.46-.61-.1-1.14-.47-2.25-.83-3.35-.28-.84-.59-1.72-1.25-2.31-.81-.73-2.03-.87-3.08-.6-1.06.27-1.99.89-2.86,1.55-.69.52-1.37,1.09-1.77,1.85-.71,1.34-.65,2.6-.14,3.69.48-.08,1.28.84,1.7,1.08Z"/>
                <path class="cls-14" d="M90.53,37.74c1.08.25,2.28.18,3.21-.43,1.13-.75,1.66-2.17,1.67-3.53,0-.21-.01-.41-.03-.61-.14.22-.3.42-.46.61-.43.51-.86,1.03-1.4,1.42-1,.72-2.31.94-3.54.81-1-.1-1.97-.43-2.84-.92-.43-.24-1.23-1.17-1.7-1.08.87,1.89,3.09,3.28,5.09,3.74Z"/>
              </g>
              <g>
                <path class="cls-9" d="M114.64,60.35c-.34.68-.54,1.43-.57,2.18-.04.93.18,1.91.76,2.63.32.39.73.69,1.13.99.15.11.31.22.48.32.86-.12,1.68-.45,2.49-.77.62-.25,1.27-.52,1.69-1.04.51-.64.57-1.57.32-2.35-.25-.79-.76-1.46-1.29-2.09-.42-.5-.88-.99-1.47-1.26-1.04-.47-1.99-.38-2.79.05.08.36-.58,1-.74,1.33Z"/>
                <path class="cls-14" d="M112.79,63.02c-.14.83-.04,1.73.46,2.4.61.82,1.71,1.16,2.73,1.11.15,0,.31-.03.46-.05-.17-.09-.33-.21-.48-.32-.4-.3-.81-.6-1.13-.99-.59-.73-.81-1.7-.76-2.63.03-.76.24-1.5.57-2.18.17-.33.83-.97.74-1.33-1.39.74-2.34,2.47-2.6,4Z"/>
              </g>
              <path class="cls-1" d="M113.74,15.94c-.17.74.04,1.51.31,2.23.47,1.26,1.24,2.56,2.53,2.97.82.26,1.72.1,2.57.24.59.09,1.17.33,1.77.25,1.21-.15,1.93-1.61,1.66-2.8-.27-1.19-1.23-2.11-2.25-2.78-1.54-1.01-5.86-3.21-6.58-.1Z"/>
              <path class="cls-1" d="M104.65,19.38c-.36-.18-.78-.18-1.18-.14-.7.07-1.47.3-1.85.9-.24.39-.28.86-.46,1.28-.13.29-.32.56-.36.87-.08.64.57,1.2,1.21,1.22.64.02,1.24-.35,1.72-.78.72-.65,2.41-2.57.92-3.34Z"/>
            </g>
          </g>
          <path class="cls-12" d="M144.25,121.94c-10.24.53-19.36-7.54-22.54-16.25-2.09-5.71-2.25-12.09-.61-17.95-15.26.92-29.44,5.85-40.01,10.68-6.49,2.97-15.38,7.04-22.34,2.89-2.1-1.25-3.64-3.06-4.73-5.11-.68.3-1.36.61-2.04.9-1.18.52-2.36,1.05-3.53,1.58-8.1,3.71-18.78,7.71-29.53,5.65C9.26,102.48-.7,93.83.04,83.07c.26-3.71,1.76-7.53,4.46-11.37,6.22-8.84,19.58-14.66,28.75-15.64l-.03,1.38c-9.02.96-21.89,6.77-27.68,14.99-2.57,3.64-3.99,7.25-4.23,10.73-.69,10.06,8.72,18.17,17.84,19.92,10.4,1.99,20.83-1.92,28.76-5.55,1.17-.54,2.35-1.06,3.54-1.58.66-.29,1.33-.59,2-.89-1.17-2.7-1.65-5.68-1.62-8.27.05-6.39,3.27-14.2,10.2-16.24,3.23-.95,7.03.95,9.06,4.52,1.83,3.23,2.19,8.15-2.28,12.28-3.94,3.64-8.77,6.11-13.64,8.33.98,1.83,2.36,3.43,4.22,4.54,6.39,3.81,14.58.06,21.16-2.95,14.16-6.47,28-10.11,40.93-10.81.78-2.38,1.87-4.67,3.26-6.76,5.26-7.97,13.9-12.67,22.25-17.22,1.76-.96,3.52-1.92,5.24-2.9,9.65-5.52,18.56-12.28,26.46-20.09,2.7-2.66,5.25-5.61,5.68-9.09.35-2.85-.79-6.09-3.2-9.12-5.12-6.43-19.91-14.48-46.99-3.1l-1.17-1.13c8.64-3.63,17.89-5.56,26.1-5.61,10.33-.05,18.31,3.08,23.06,9.05,2.63,3.31,3.86,6.88,3.47,10.07-.48,3.87-3.19,7.02-6.05,9.84-7.98,7.89-16.97,14.72-26.72,20.29-1.73.99-3.49,1.95-5.27,2.91-8.22,4.47-16.71,9.09-21.8,16.8-1.23,1.86-2.22,3.89-2.95,5.99,7.16-.28,14.04.35,20.53,1.91,7.72,1.85,12.78,4.91,15.48,9.36,2.4,3.96,2.5,8.98.28,13.78-2.55,5.5-7.5,9.44-12.94,10.31-.65.1-1.3.17-1.95.2ZM122.43,87.67c-1.69,5.72-1.58,11.98.47,17.58,3.21,8.77,12.72,16.86,23.1,15.23,5.02-.8,9.61-4.47,11.98-9.58,2.04-4.41,1.96-8.99-.21-12.58-2.51-4.14-7.32-7.01-14.69-8.78-6.93-1.66-13.89-2.16-20.65-1.86ZM63.49,71.58c-.37.02-.74.08-1.1.19-6.31,1.85-9.24,9.09-9.29,15.03-.02,2.43.42,5.23,1.51,7.74,4.79-2.18,9.53-4.6,13.34-8.12,3.33-3.08,4.09-7.08,2.04-10.72-1.5-2.65-4.09-4.24-6.49-4.12Z"/>
        </g>
      </g>
    </g>
  </g>
</svg>