<?xml version="1.0" encoding="UTF-8"?>
<svg xmlns="http://www.w3.org/2000/svg" xmlns:xlink="http://www.w3.org/1999/xlink" viewBox="0 0 103.95 92.01">
  <defs>
    <style>
      .cls-1 {
        opacity: .36;
      }

      .cls-1, .cls-2, .cls-3, .cls-4 {
        mix-blend-mode: multiply;
      }

      .cls-1, .cls-3 {
        fill: #6e9fd5;
      }

      .cls-5, .cls-6, .cls-7 {
        mix-blend-mode: overlay;
      }

      .cls-5, .cls-7 {
        fill: #00a9c6;
      }

      .cls-8 {
        fill: #1679be;
      }

      .cls-9 {
        fill: none;
      }

      .cls-2 {
        opacity: .15;
      }

      .cls-2, .cls-4 {
        fill: #2c4294;
      }

      .cls-10 {
        isolation: isolate;
      }

      .cls-11 {
        fill: #4494d1;
      }

      .cls-6 {
        fill: #009eac;
      }

      .cls-12 {
        fill: #509bd5;
      }

      .cls-3 {
        opacity: .18;
      }

      .cls-7 {
        opacity: .66;
      }

      .cls-4 {
        opacity: .28;
      }

      .cls-13 {
        clip-path: url(#clippath);
      }

      .cls-14 {
        fill: url(#_Безымянный_градиент_126);
      }

      .cls-15 {
        fill: #73b0e0;
      }
    </style>
    <clipPath id="clippath">
      <circle class="cls-9" cx="51.77" cy="46" r="46" transform="translate(-17.37 50.08) rotate(-45)"/>
    </clipPath>
    <radialGradient id="_Безымянный_градиент_126" data-name="Безымянный градиент 126" cx="51.77" cy="46" fx="22.51" fy="46" r="46" gradientTransform="translate(47.69 -23.13) rotate(45)" gradientUnits="userSpaceOnUse">
      <stop offset=".36" stop-color="#4b95d1"/>
      <stop offset=".73" stop-color="#1679be"/>
    </radialGradient>
  </defs>
  <g class="cls-10">
    <g id="Calque_2" data-name="Calque 2">
      <g id="Calque_1-2" data-name="Calque 1">
        <g class="cls-13">
          <circle class="cls-14" cx="51.77" cy="46" r="46" transform="translate(-17.37 50.08) rotate(-45)"/>
          <ellipse class="cls-11" cx="60.63" cy="19.69" rx="15.55" ry="27" transform="translate(23.72 71.66) rotate(-72.62)"/>
          <ellipse class="cls-12" cx="67.94" cy="17.45" rx="11.55" ry="20.06" transform="translate(30.99 77.07) rotate(-72.62)"/>
          <path class="cls-1" d="M65.26,81.25c-24.75,0-44.82-20.07-44.82-44.82,0-11.8,4.57-22.53,12.03-30.54-14.38,7.46-24.21,22.48-24.21,39.79,0,24.75,20.07,44.82,44.82,44.82,12.95,0,24.61-5.5,32.79-14.28-6.17,3.2-13.18,5.02-20.61,5.02Z"/>
          <path class="cls-15" d="M81.58,21.59c-2.13,3.69-9.05,3.68-15.46-.02-6.41-3.7-9.88-9.69-7.75-13.38,2.13-3.69,9.05-3.68,15.46.02,6.41,3.7,9.88,9.69,7.75,13.38Z"/>
          <g>
            <path class="cls-3" d="M34.71,60.63c2.5,2.07,5.58,3.42,8.79,3.86,1,.14,2.06.18,2.97-.24,1.64-.75,2.29-2.68,3.19-4.24.9-1.56,2.82-3.02,4.37-2.1.82,2.72,2.02,5.48,4.31,7.16,2.28,1.68,5.9,1.83,7.71-.36-.8-.45-.49-1.94.42-2.04,3.76-2.68,8.59,1.53,13.18,1.95,1.69.16,3.37-.22,5.02-.6,4.79-1.09,9.59-2.19,14.38-3.28,1.82-3.06,3.23-6.37,4.17-9.8.7-2.56,1.12-5.33.21-7.81-.91-2.49-3.55-4.5-6.13-3.9.55,1.13,1.09,2.26,1.64,3.39-1.66,2.59-4.67,3.91-7.51,5.1-6.95,2.89-13.9,5.78-20.84,8.67-2.76,1.15-7.22,1.36-7.45-1.62-3.87-2.21-8.93-2.16-12.76.13-1.45.87-2.75,2.04-4.38,2.5-3.32.94-6.77-1.34-10.2-1.03-3.27.3-5.96,2.87-9.21,3.29-1.81.23-3.62-.23-5.39-.68-4.91-1.27-10.04-3.15-15.05-3.7,2.94,2.73,7.72,5.29,11.37,7.17,3.91,2.01,5.42,2.11,9.44.5,2.19-.88,5.15-4.06,7.76-2.32Z"/>
            <path class="cls-3" d="M25.03,27.59c3.96-.81,6.67-6.92,10.29-5.13l1.92,4.58c2.17,1.87,4.86-1.84,7.65-2.52,3.27-.79,5.81,2.78,8.92,4.07,6.7,2.78,14.72-5.5,21.03-1.9,1.43.81,2.49,2.14,3.82,3.11,4.53,3.27,10.81,1.65,16.05-.27,1.98-.73,4.16-1.49,6.14-.37,1.02.57,1.66,1.72,1.41,2.86-.3,1.39-1.81.66-2.96.98-7.09,2-14.12,4.53-21.45,5.27-4.53-4.79-11.78-6.76-18.14-5.07-.86.23-1.78.18-2.56-.25-2.6-1.44-5.99-1.18-8.95-.42-3.38.87-6.71,2.31-10.2,2.15-2.9-.13-5.63-1.36-8.49-1.83-2.04-.33-4.36-.14-6.07.89-1.21.73-2.75.7-3.89-.14-2.54-1.88-5.45-3.21-8.52-3.98-2.96-.74-8.4-.95-4.37-5.36,5.4-5.9,12.94,4.46,18.37,3.34Z"/>
            <path class="cls-4" d="M23.52,67.41c1.71-.91,3.51-2.31,5.36-1.72,1.48.47,2.4,2.12,3.93,2.42,1.59.3,3.26-1,4.76-.39.59.24,1.03.73,1.51,1.14,3,2.53,8.36,1.14,9.75-2.53.53-1.39.79-3.23,2.21-3.64,1.33-.39,2.61.93,2.93,2.28.33,1.35.07,2.77.32,4.14.24,1.36,1.29,2.8,2.67,2.67,1.58-.16,2.34-2.17,3.84-2.68,2.48-.83,5.59,2.7,7.38.79.5-.53.61-1.31,1-1.92,1.25-2,4.48-1.25,6.12.46.4.42.79.9,1.34,1.08.51.17,1.06.05,1.58-.07,6.04-1.38,12.07-2.76,18.11-4.14.24,1.91-1.08,3.9-2.94,4.42-1.75.49-3.59-.22-5.41-.27-5.03-.14-9.91,4.72-14.52,2.68-.48-.21-.94-.5-1.46-.6-1.47-.27-2.71,1-3.82,2.01-1.1,1.01-2.9,1.84-3.98.81-.46-.44-.68-1.14-1.26-1.39-.67-.29-1.4.18-2,.6-1.43,1.01-3.02,1.88-4.76,2.07s-3.65-.46-4.59-1.93c-.32-.51-.53-1.1-.95-1.53-1.5-1.53-4.05.05-5.41,1.71-1.36,1.66-3.31,3.67-5.26,2.78-1.49-.68-2.36-2.92-3.96-2.57-.45.1-.82.4-1.25.55-2.54.9-3.99-3.35-6.61-3.95-2.25-.51-4.01,1.78-5.69,3.37-2.99,2.82-7.26,3.85-11.36,4.14-.37.03-.76.04-1.09-.13-.4-.21-.62-.64-.81-1.05-1.42-2.99-6.04-9.79-.03-9.78,5.09,0,9.29,2.89,14.35.19Z"/>
            <path class="cls-4" d="M21.84,62.03c4.37.34,8.3-2.41,12.03-4.7,1.37-.84,3.21-1.61,4.45-.59,1.05.85.99,2.49,1.78,3.58,1.17,1.62,3.72,1.44,5.43.42s3-2.65,4.7-3.7c1.7-1.04,4.23-1.28,5.46.29.61.78.74,1.83,1.21,2.7,1.25,2.33,5.07,2.6,6.63.47.59-.8,1.1-1.17,2.09-1.33.68-.11,1.69.51,2.33.75,1.2.45,2.99-.09,4.25-.33,6.75-1.3,18.98-6.01,25.42-8.42,3.71-1.39,1.12-1.41,2.77-5.01-8.95,3.64-17.41,6.38-26.36,10.01-3.46,1.41-9,2.17-11,.85-1.08-.71-1.39-2.18-2.16-3.22-2.06-2.77-6.34-3.56-9.25-1.72-2.64,1.66-4.6,5.22-7.69,4.81-.76-.1-1.45-.45-2.16-.74-3.56-1.45-7.7-1.41-11.22.13-1.67.73-3.21,1.78-4.95,2.32-4.02,1.25-8.32-.38-12.22-1.98-3.44-1.42-6.99-3.28-10.58-4.2,3.98,3.57,13.69,9.61,19.03,9.61Z"/>
            <path class="cls-2" d="M20.72,43.23c3.08-2.32,6.05-5.24,9.88-5.74,1.7-.22,3.67.21,4.58,1.67.37.59.53,1.28.7,1.95.58,2.31,1.93,5.01,4.31,5,1.47,0,2.68-1.08,3.82-2.02,2.54-2.08,5.46-3.7,8.58-4.75,2.37-.8,5.47-1.07,6.95.95.63.86.81,1.95,1.24,2.92,1.34,3.05,5.45,4.51,8.42,2.98,1.15-.59,2.09-1.53,3.25-2.08,1.67-.78,3.73-.64,5.28.36.81.52,1.47,1.26,2.32,1.7,2.09,1.09,4.63.17,6.75-.86,3.16-1.53,6.19-3.31,9.08-5.3,2.47-1.7,5.09-4.15,4.7-7.13-.07-.56-.27-1.11-.65-1.52-.56-.59-1.41-.77-2.22-.83-6.48-.49-12.76,4.78-19.01,3-1.77-.51-3.33-1.55-5.01-2.29-3.07-1.36-6.58-1.71-9.86-.99-1.53.34-3.03.91-4.59,1.02-4.68.34-8.99-3.37-13.65-2.85-1.88.21-3.63,1.11-5.49,1.47-1.86.37-4.11,0-5.08-1.62-.32-.54-.47-1.18-.83-1.7-1.19-1.69-3.86-1.18-5.59-.05-1.73,1.13-3.34,2.76-5.4,2.85-1.94.08-3.65-1.25-4.94-2.71-1.28-1.46-2.38-3.14-4.02-4.19-2.96-1.88-7.12-1.06-9.67,1.35C.9,27.28-.08,33.85,1.7,38.47c1.28,3.31,6.28,6.64,9.53,7.6,3.32.98,6.9-.88,9.49-2.83Z"/>
            <path class="cls-7" d="M12.96,53.07c3.48,1.41,7.57,1.76,10.91.04,2.55-1.31,4.43-3.67,7.01-4.92,3.79-1.83,8.78-.68,11.38,2.63.33.42.65.89,1.16,1.06.81.27,1.62-.36,2.26-.94,2.29-2.07,4.85-3.99,7.85-4.72,3-.73,6.52-.02,8.42,2.41.78,1,1.27,2.24,2.23,3.07,2.21,1.9,5.56.72,8.32-.24,2.91-1.01,5.94-1.66,9.01-1.94,3.39-.31,6.59-2.15,9.72-3.5,1.6-.69,6.14-3.58,7.75-4.25,1.61-.67.77,2.9,2.25,3.83-1.29,2.49,1.82,7.59.25,9.92-1.47,2.19-4.41,2.5-7,3-3.78.73-7.75,1.75-11.81,3.19-3.75,1.33-4.87,1.19-8.69,2.31-.78.23-3.25,1.75-4.53,2.77-.44.35-.95-.64-1.5-.79-1.14-.3-2.13.74-3.17,1.31-1.8.98-4.1.52-5.81-.6-1.71-1.12-2.97-2.8-4.22-4.42-.41-.53-.85-1.08-1.46-1.36-1.13-.53-2.53.02-3.39.93-.86.91-1.34,2.1-1.89,3.22-1.04,2.09-2.92,4.25-5.24,3.94-1.92-.26-3.17-2.1-4.79-3.16-2.37-1.55-5.43-1.36-8.27-1.19-9.6.57-19.25.27-28.8-.89-1.5-.18-1.02-16.28.56-17.5,2.95-2.27,8.9,5.75,11.49,6.81Z"/>
          </g>
          <g>
            <path class="cls-6" d="M23.82,50.41c.2-.08.36-.24.56-.33.26-.12.57-.11.81-.28.38-.27.34-.86.14-1.28-.11-.24-.27-.47-.5-.6-.19-.11-.4-.15-.62-.17-2.18-.2-1.61,3.11-.39,2.65Z"/>
            <path class="cls-6" d="M41.57,67.28c.2-.08.36-.24.56-.33.26-.12.57-.11.81-.28.38-.27.34-.86.14-1.28-.11-.24-.27-.47-.5-.6-.19-.11-.4-.15-.62-.17-2.18-.2-1.61,3.11-.39,2.65Z"/>
            <path class="cls-6" d="M23.4,41.82c.2-.08.36-.24.56-.33.26-.12.57-.11.81-.28.38-.27.34-.86.14-1.28-.11-.24-.27-.47-.5-.6-.19-.11-.4-.15-.62-.16-2.18-.2-1.61,3.11-.39,2.65Z"/>
            <path class="cls-7" d="M31.36,42.73c.06-.02.11-.08.18-.1.08-.04.18-.04.25-.09.12-.09.11-.27.04-.4-.04-.08-.09-.15-.16-.19-.06-.03-.13-.05-.19-.05-.69-.06-.51.98-.12.84Z"/>
            <path class="cls-7" d="M28.49,54.16c.08-.03.14-.09.22-.13.1-.05.22-.04.32-.11.15-.11.13-.33.05-.5-.04-.09-.11-.18-.2-.24-.07-.04-.16-.06-.24-.06-.85-.08-.63,1.22-.15,1.04Z"/>
            <path class="cls-7" d="M31.84,22.1c.06-.02.11-.08.18-.1.08-.04.18-.04.25-.09.12-.09.11-.27.04-.4-.04-.08-.09-.15-.16-.19-.06-.03-.13-.05-.19-.05-.69-.06-.51.98-.12.84Z"/>
            <path class="cls-7" d="M40.61,48.11c.06-.02.11-.08.18-.1.08-.04.18-.04.25-.09.12-.09.11-.27.04-.4-.04-.08-.09-.15-.16-.19-.06-.03-.13-.05-.19-.05-.69-.06-.51.98-.12.84Z"/>
            <path class="cls-7" d="M38.17,50.24c.06-.02.11-.08.18-.1.08-.04.18-.04.25-.09.12-.09.11-.27.04-.4-.04-.08-.09-.15-.16-.19-.06-.03-.13-.05-.19-.05-.69-.06-.51.98-.12.84Z"/>
            <path class="cls-7" d="M34.84,53.72c.06-.02.11-.08.18-.1.08-.04.18-.04.25-.09.12-.09.11-.27.04-.4-.04-.08-.09-.15-.16-.19-.06-.03-.13-.05-.19-.05-.69-.06-.51.98-.12.84Z"/>
            <path class="cls-7" d="M38.37,25.62c.06-.02.11-.08.18-.1.08-.04.18-.04.25-.09.12-.09.11-.27.04-.4-.04-.08-.09-.15-.16-.19-.06-.03-.13-.05-.19-.05-.69-.06-.51.98-.12.84Z"/>
            <path class="cls-6" d="M44.83,48.26c-.13.05-.24.16-.37.22-.17.08-.38.07-.54.18-.25.18-.23.57-.09.85.07.16.18.31.33.4.12.07.27.1.41.11,1.45.13,1.07-2.07.26-1.76Z"/>
            <path class="cls-6" d="M39.09,53.76c.13-.07.21-.19.33-.27.16-.1.37-.13.5-.26.22-.21.14-.6-.03-.85-.1-.15-.22-.28-.39-.35-.13-.05-.28-.06-.42-.05-1.46.08-.76,2.2,0,1.78Z"/>
            <path class="cls-5" d="M28.82,44.25c-.18-.22-.43-.38-.69-.51-.11-.06-.25-.14-.39-.22.16.28.31.57.43.79.17.32.33.65.37,1.01.04.32-.02.65-.13.96.25.04.5,0,.66-.17.15-.17.16-.41.15-.63-.02-.43-.12-.88-.4-1.22Z"/>
            <path class="cls-5" d="M28.54,45.31c-.04-.36-.2-.69-.37-1.01-.12-.22-.26-.5-.43-.79-.61-.33-1.41-.71-1.92-.33-.63.46-.62,1.7-.39,2.34.13.36.41.73.79.73.32,0,.59-.25.91-.3.34-.05.66.12.98.24.09.03.19.06.3.07.11-.31.17-.63.13-.96Z"/>
            <path class="cls-5" d="M28.54,45.31c-.04-.36-.2-.69-.37-1.01-.12-.22-.26-.5-.43-.79-.61-.33-1.41-.71-1.92-.33-.63.46-.62,1.7-.39,2.34.13.36.41.73.79.73.32,0,.59-.25.91-.3.34-.05.66.12.98.24.09.03.19.06.3.07.11-.31.17-.63.13-.96Z"/>
            <path class="cls-5" d="M34.1,46.21c-.28.33-.46.84-.49,1.3-.04.45.05.85.2,1.15.18.37.48.63.85.55.37-.08.8-.55.94-1.13.14-.58-.06-1.06-.31-1.33-.25-.26-.77-1.03-1.18-.54Z"/>
            <path class="cls-5" d="M38,60c-.15-.4-.5-.81-.88-1.07-.37-.26-.76-.38-1.1-.4-.42-.03-.78.11-.9.46-.12.36.08.97.51,1.38.44.41.95.48,1.31.39.35-.09,1.28-.15,1.05-.75Z"/>
            <path class="cls-5" d="M27.27,25.36c.12-.31.07-.7-.07-1.01s-.39-.53-.65-.68c-.32-.18-.69-.24-1-.06s-.51.64-.4,1.05c.11.43.48.67.82.75.33.08,1.12.41,1.29-.06Z"/>
            <path class="cls-5" d="M31.55,36.96c-.25.38-.25.89-.06,1.3.19.41.54.74.93.96.49.27,1.08.41,1.61.22.53-.18.94-.74.84-1.29-.1-.56-.66-.92-1.21-1.08-.52-.15-1.74-.68-2.11-.11Z"/>
            <path class="cls-5" d="M31.55,64.09c-.25.38-.25.89-.06,1.3.19.41.54.74.93.96.49.27,1.08.41,1.61.22.53-.18.94-.74.84-1.29-.1-.56-.66-.92-1.21-1.08-.52-.15-1.74-.68-2.11-.11Z"/>
          </g>
          <g>
            <path class="cls-8" d="M56.83,42.2c.22-.08.42-.26.65-.22.19.03.36.21.55.15.14-.04.21-.19.25-.33.18-.72-.19-1.53-.85-1.87-2.6-1.33-2.31,2.91-.6,2.27Z"/>
            <path class="cls-8" d="M56.16,67.41c-.13.19-.2.45-.41.56-.17.08-.41.04-.54.19-.09.11-.06.28,0,.41.26.69,1.04,1.14,1.77,1.04,2.9-.4.22-3.71-.81-2.2Z"/>
            <path class="cls-8" d="M70.35,48.01c.12.22.33.38.55.5.07.04.15.08.24.09.17,0,.31-.14.4-.29.22-.34.35-.8.15-1.16-.08-.15-.22-.27-.37-.37-.76-.47-1.32.6-.98,1.22Z"/>
            <path class="cls-8" d="M86.98,63.38c.12.22.33.38.55.5.07.04.15.08.24.09.17,0,.31-.14.4-.29.22-.34.35-.8.15-1.16-.08-.15-.22-.27-.37-.37-.76-.47-1.32.6-.98,1.22Z"/>
            <path class="cls-8" d="M50.23,41.65c-.23.11-.4.31-.53.53-.05.07-.09.15-.1.23-.01.17.13.32.27.42.33.24.78.39,1.15.21.16-.08.29-.2.38-.35.51-.73-.53-1.35-1.17-1.05Z"/>
            <path class="cls-8" d="M78.06,47.29c-.25-.04-.5.03-.74.13-.08.03-.16.07-.21.14-.11.13-.08.33-.02.5.14.39.42.76.82.83.17.03.35,0,.51-.07.83-.31.34-1.41-.36-1.53Z"/>
            <path class="cls-8" d="M74.44,45.31c-.11-.02-.23.02-.34.06-.04.02-.07.03-.1.06-.05.06-.03.15,0,.23.07.17.2.34.38.37.08.01.16,0,.23-.03.38-.15.14-.65-.18-.69Z"/>
            <path class="cls-8" d="M65.84,50.51c-.11-.02-.23.02-.33.06-.04.02-.07.03-.1.06-.05.06-.03.15,0,.23.07.17.2.34.38.37.08.01.16,0,.23-.03.38-.15.14-.65-.18-.69Z"/>
            <path class="cls-8" d="M79.24,66.26c-.18-.03-.36.03-.53.1-.06.02-.11.05-.15.1-.08.1-.05.24,0,.35.1.27.31.54.6.58.12.02.25,0,.37-.05.59-.23.23-1.01-.28-1.08Z"/>
          </g>
        </g>
      </g>
    </g>
  </g>
</svg>